<?xml version="1.0" encoding="UTF-8" standalone="no"?>
<svg
   width="1200"
   height="800"
   viewBox="-13.2 -16.50405 114.4 99.0243"
   version="1.1"
   id="svg5"
   sodipodi:docname="Gmail.svg"
   xmlns:inkscape="http://www.inkscape.org/namespaces/inkscape"
   xmlns:sodipodi="http://sodipodi.sourceforge.net/DTD/sodipodi-0.dtd"
   xmlns="http://www.w3.org/2000/svg"
   xmlns:svg="http://www.w3.org/2000/svg">
  <defs
     id="defs5" />
  <sodipodi:namedview
     id="namedview5"
     pagecolor="#ffffff"
     bordercolor="#000000"
     borderopacity="0.25"
     inkscape:showpageshadow="2"
     inkscape:pageopacity="0.0"
     inkscape:pagecheckerboard="0"
     inkscape:deskcolor="#d1d1d1"
     showgrid="false"
     inkscape:export-bgcolor="#ffffffff" />
  <path
     fill="#4285f4"
     d="m 6,66.0162 h 14 v -34 l -20,-15 v 43 c 0,3.315 2.685,6 6,6 z"
     id="path1" />
  <path
     fill="#34a853"
     d="m 68,66.0162 h 14 c 3.315,0 6,-2.685 6,-6 v -43 l -20,15 z"
     id="path2" />
  <path
     fill="#fbbc04"
     d="m 68,6.0162 v 26 l 20,-15 v -8 c 0,-7.415 -8.465,-11.65 -14.4,-7.2 z"
     id="path3" />
  <path
     fill="#ea4335"
     d="m 20,32.0162 v -26 l 24,18 24,-18 v 26 l -24,18 z"
     id="path4" />
  <path
     fill="#c5221f"
     d="m 0,9.0162 v 8 l 20,15 v -26 l -5.6,-4.2 C 8.465,-2.6338 0,1.6012 0,9.0162 Z"
     id="path5" />
</svg>
